<?xml version="1.0" encoding="UTF-8"?>
<svg id="_レイヤー_1" xmlns="http://www.w3.org/2000/svg" viewBox="0 0 419.29 71.26">
  <defs>
    <style>
      .cls-1 {
        fill: #fffbec;
      }

      .cls-2 {
        fill: #b4bc4e;
      }
    </style>
  </defs>
  <g>
    <g>
      <path class="cls-1" d="M103.82,15.52h-2.2V1.91h2.2v13.61Z"/>
      <path class="cls-1" d="M110.28,15.52V3.81h-3.86v-1.9h9.92v1.9h-3.88v11.71h-2.18Z"/>
      <path class="cls-1" d="M121.39,10.43c-.88,0-1.63-.74-1.63-1.65s.74-1.65,1.65-1.65,1.65.74,1.65,1.65-.74,1.65-1.65,1.65h-.02Z"/>
      <path class="cls-1" d="M139.65,3.26l1.63.87c-1.29,5.79-4.22,9.94-9.73,12.31l-1.43-1.7c5.17-2.02,7.72-5.33,8.65-9.53h-10.49v-1.95s11.37,0,11.37,0ZM143.58,1.83c0,.97-.8,1.79-1.81,1.79s-1.81-.82-1.81-1.81.8-1.81,1.81-1.81,1.81.8,1.81,1.81v.02ZM140.62,1.83c0,.6.53,1.13,1.15,1.13s1.15-.53,1.15-1.15-.53-1.15-1.15-1.15-1.15.53-1.15,1.15v.02Z"/>
      <path class="cls-1" d="M159.02,3.31v12.1h-12.93V3.31h12.93ZM156.88,13.41V5.28h-8.68v8.13h8.68Z"/>
      <path class="cls-1" d="M174.57,3.77l1.51.73c-1.4,6.02-4.22,9.83-9.55,12.05l-1.38-1.7c5.1-1.84,7.51-5.37,8.36-9.25h-5.28c-1.24,1.84-2.73,3.58-4.18,4.75l-1.59-1.29c2.57-1.93,4.94-5.44,5.95-7.99l1.97.71c-.28.64-.62,1.31-1.01,2h5.21-.01ZM174.77.97c.73.73,1.19,1.36,1.74,2.25l-.97.74c-.53-.87-.99-1.58-1.7-2.27l.94-.73h-.01ZM176.98.08c.71.73,1.19,1.36,1.74,2.25l-.97.74c-.53-.87-1.01-1.56-1.7-2.27l.94-.73h-.01Z"/>
      <path class="cls-1" d="M192.59,6.02l1.45,1.01c-1.31,4.57-4.43,7.76-8.84,9.46l-1.33-1.82c4.06-1.35,6.71-3.9,7.49-6.73h-10.88v-1.91h12.11ZM192.45,2v1.9h-10.15v-1.9h10.15Z"/>
      <path class="cls-1" d="M208.94,14.58l-1.08,1.93c-2.71-1.51-7.39-3.14-11.11-4l.73-1.93c3.84.96,8.47,2.57,11.46,4ZM209.28,4l-.85,1.97c-2.69-1.22-6.93-2.34-10.13-2.94l.64-1.91c3.53.66,7.58,1.83,10.35,2.89h0ZM207.93,8.62l-.87,1.86c-2.25-1.01-5.44-2.02-8.42-2.62l.62-1.86c2.91.62,6.24,1.63,8.66,2.62h0Z"/>
      <path class="cls-1" d="M219.42,5.65l-1.38,1.72c-.99-.89-3.05-2.36-4.52-3.14l1.29-1.7c1.54.89,3.49,2.2,4.61,3.12h0ZM225.89,5.69l1.36,1.58c-2.46,3.95-7.44,7.64-12.21,9.11l-1.08-2c4.7-1.19,9.53-4.73,11.92-8.68h.01Z"/>
      <path class="cls-1" d="M241.91,3.77l1.51.73c-1.4,6.02-4.22,9.83-9.55,12.05l-1.38-1.7c5.1-1.84,7.51-5.37,8.36-9.25h-5.28c-1.24,1.84-2.73,3.58-4.18,4.75l-1.59-1.29c2.57-1.93,4.94-5.44,5.95-7.99l1.97.71c-.28.64-.62,1.31-1.01,2h5.21-.01ZM242.11.97c.73.73,1.19,1.36,1.74,2.25l-.97.74c-.53-.87-.99-1.58-1.7-2.27l.94-.73h-.01ZM244.32.08c.71.73,1.19,1.36,1.74,2.25l-.97.74c-.53-.87-1.01-1.56-1.7-2.27l.94-.73h-.01Z"/>
      <path class="cls-1" d="M246.36,10.12c0-3.84,3.08-7.51,7.47-7.51,4.85,0,6.73,2.86,6.73,6.23s-1.45,6.03-6.29,7.09l-.93-1.83c4.12-.71,5.23-2.71,5.23-5.22s-1.33-4.22-4.17-4.39c-.25,6.31-2.19,10.6-4.85,10.6-1.9,0-3.2-2.41-3.2-4.95v-.02h0ZM248.19,10.09c0,1.62.64,2.88,1.41,2.88,1.14,0,2.69-2.96,2.86-8.35-2.69.59-4.27,2.91-4.27,5.47Z"/>
      <path class="cls-1" d="M268.06,12.67h-4.43v-1.49h10.74v-1.01h-8.61v-5.88h5v-.96h-7v-1.47h7V.57h1.97v1.29h7.21v1.47h-7.21v.96h5.24v5.88h-1.61v1.01h3.72v1.49h-3.72v2.57c0,.99-.32,1.56-1.22,1.7-.55.09-1.9.09-2.82.04l-.37-1.74c.71.05,1.74.05,2.04.04.3-.02.39-.16.39-.41v-2.2h-6.11c1.24.8,2.21,1.58,2.96,2.36l-1.52,1.05c-.69-.82-1.65-1.63-2.85-2.45.8-.62,1.1-.87,1.22-.96h-.02ZM267.65,6.66h3.1v-1.03h-3.1v1.03ZM267.65,8.82h3.1v-1.06h-3.1v1.06ZM275.99,6.66v-1.03h-3.28v1.03h3.28ZM275.99,8.82v-1.06h-3.28v1.06h3.28Z"/>
      <path class="cls-1" d="M284.63,1.13h4.82v6.68h-4.82v9.19h-1.91V1.13h1.91ZM287.61,3.75v-1.17h-2.98v1.17h2.98ZM284.63,5.11v1.24h2.98v-1.24s-2.98,0-2.98,0ZM296.75,1.12h.82v13.64c0,1.28-.37,2-1.59,2.18-.55.09-1.82.07-2.75.02l-.39-1.86c.76.07,1.83.09,2.2.05.46-.05.58-.27.58-.71v-6.64h-4.92V1.13h6.06,0ZM295.62,3.74v-1.17h-3.06v1.17s3.06,0,3.06,0ZM292.56,5.1v1.24h3.06v-1.24s-3.06,0-3.06,0Z"/>
      <path class="cls-1" d="M307.29,9.62l-1.01,1.65c-.25-.64-.62-1.49-1.03-2.36v8.1h-1.88v-6.84c-.5,1.42-1.05,2.75-1.61,3.79l-1.01-1.97c1.01-1.45,2.05-3.95,2.6-6.11h-2.32v-1.72h2.34V.57h1.88v3.6h1.86v1.72h-1.86v.73c.74,1.04,1.56,2.25,2.04,3.01h0ZM312.21,11.5c.73-1.01,1.28-2.23,1.67-3.67l1.67.51c-.64-.85-1.47-1.77-2.45-2.73l1.51-.82c1.24,1.13,2.23,2.18,2.99,3.19l-1.7.85c-.07-.11-.16-.21-.23-.32-.53,1.75-1.28,3.22-2.2,4.45,1.15,1.08,2.57,1.84,4.2,2.3l-1.33,1.72c-1.59-.6-2.98-1.45-4.13-2.6-1.24,1.17-2.73,2.02-4.45,2.62l-1.28-1.67c1.75-.5,3.26-1.28,4.48-2.41-.87-1.2-1.56-2.66-2.05-4.36-.14.12-.28.25-.43.35l-1.68-.83c1.12-.83,2.18-1.98,2.85-3.21l1.74.62c-.55,1.01-1.35,2.02-2.23,2.83l1.45-.46c.35,1.42.9,2.6,1.59,3.61v.03ZM311.24,2.89V.57h1.93v2.32h4.31v1.79h-10.29v-1.79h4.06,0Z"/>
    </g>
    <rect class="cls-1" x="23.39" y="7.82" width="69.72" height="1.7"/>
    <rect class="cls-1" x="326.18" y="7.82" width="69.72" height="1.7"/>
  </g>
  <g>
    <g>
      <polygon class="cls-2" points="38.14 34.46 30.84 34.46 47.43 51.04 30.84 67.62 38.14 67.62 54.72 51.04 38.14 34.46"/>
      <polygon class="cls-2" points="30.84 41.75 30.84 60.33 40.13 51.04 30.84 41.75"/>
      <polygon class="cls-2" points="16.58 34.46 0 51.04 16.58 67.62 23.88 67.62 7.3 51.04 23.88 34.46 16.58 34.46"/>
      <polygon class="cls-2" points="0 34.46 0 43.74 9.29 34.46 0 34.46"/>
      <polygon class="cls-2" points="0 67.62 9.29 67.62 0 58.34 0 67.62"/>
    </g>
    <g>
      <path class="cls-1" d="M220.27,35.9l-2.42-1.86-.88,1.16c-.3.02-.77.04-1.05.04l-1.03.03c-.68.02-4.48.21-5.23.21-.02,0-.33-.23-.39-.26-1.14-.7-2.28-.74-2.7-.75l-.09.28c1.14.48,1.09,1.58,1.09,1.58l-.03,3.56-.18.56c-.02.07-.02.14-.02.23,0,.35.11.54.26.72.39.44,1,.96,1.54.96.58,0,.61-.42.61-.68v-2.53c0-.42-.02-.94-.04-1.97l7.53-.33c-.16,2.81-.88,4.95-1.58,6.25-1.74,3.26-4.3,4.37-5.47,4.87l.12.44c1.53-.37,4.96-1.14,7.15-4.26,1.16-1.67,1.88-3.86,2.35-7.1.33-.18.75-.39.75-.65,0-.09-.12-.35-.32-.49h.03Z"/>
      <path class="cls-1" d="M235.26,38.77c-.74.93-1.72,1.96-2.67,2.72-2.63,2.15-6.67,3.87-7.4,3.87-.62,0-1.05-.53-1.31-.83l-.36.12c.21.74.43,1.51,1.74,2.72.14.12.7.75,1,.58.37-.21.6-.69.6-.69,6.54-2.61,8.57-6.35,9.94-10.06l-.38-.17c-.41.71-.69,1.17-1.17,1.74h0Z"/>
      <path class="cls-1" d="M225.67,37.44l.41.84c.41.86.84.88,1.12.88.81,0,1.32-.6,1.32-1.43,0-.53-.28-1.53-1.5-2.06-1.34-.6-2.72-.64-3.53-.65l-.09.34c.62.31,1.65.84,2.25,2.08h.02Z"/>
      <path class="cls-1" d="M80.02,45.32l-4.66-5.83,3.88-3.11c.95-.77,1.56-1.22,1.82-1.35s.63-.22,1.09-.25v-.36h-5.17v.36c.57.02.92.07,1.06.14.28.14.42.34.42.59,0,.33-.34.77-1.03,1.33l-4.91,3.97v-4.12c0-.67.04-1.09.12-1.25.1-.21.23-.37.4-.46.23-.13.58-.2,1.03-.2v-.36h-6.59v.36h.44c.37,0,.67.06.88.19.22.13.36.28.43.44.07.17.11.59.11,1.27v8.71c0,.66-.04,1.07-.11,1.23-.09.22-.22.38-.39.47-.23.14-.54.21-.93.21h-.44v.36h6.68v-.36c-.49,0-.84-.06-1.06-.18s-.37-.27-.45-.43c-.08-.17-.12-.6-.12-1.29v-3.61l.49-.41,3.04,3.82c.6.76.9,1.27.9,1.54,0,.14-.06.26-.19.36-.13.1-.41.17-.84.21v.36h6.89v-.36c-.38,0-.75-.1-1.09-.31-.48-.29-1.04-.85-1.7-1.67h0Z"/>
      <path class="cls-1" d="M108.76,35.06c-.96-.43-2.36-.64-3.95-.64h-6.52v.36h.44c.37,0,.67.06.88.19.22.13.36.28.43.44.07.17.11.59.11,1.27v8.71c0,.68-.03,1.09-.09,1.23-.1.21-.25.37-.45.49-.21.12-.5.18-.88.18h-.44v.36h6.52c.85,0,1.61-.04,2-.12.9-.17,1.66-.41,2.28-.72.62-.31,1.17-.72,1.65-1.23s.86-1.16,1.16-1.94.45-1.64.45-2.57c0-1.35-.3-2.56-.91-3.62-.61-1.07-1.5-1.87-2.68-2.39ZM107.66,45.82c-.57.74-1.53,1.11-2.62,1.11-.33,0-1.18-.05-1.36-.15-.12-.06-.21-.16-.26-.28s-.08-.46-.08-1.01v-10.33c1.09,0,2.59.09,3.06.29.66.29,1.21.83,1.63,1.62.53,1.02.8,2.37.8,4.07,0,2.11-.39,3.67-1.17,4.67h0Z"/>
      <path class="cls-1" d="M121.73,34.23c-1.95-.08-3.6.54-4.94,1.85-1.34,1.31-2.01,2.95-2.01,4.92,0,1.75.51,3.27,1.54,4.54,1.3,1.61,3.14,2.42,5.53,2.42s4.22-.85,5.52-2.54c.98-1.28,1.47-2.75,1.47-4.43,0-1.97-.66-3.6-1.98-4.91s-3.03-1.92-5.14-1.85h.01ZM124.85,44.74c-.32.91-.77,1.58-1.34,2-.45.33-1.01.49-1.68.49-1,0-1.77-.38-2.32-1.13-.79-1.08-1.19-2.75-1.19-5.01,0-1.9.26-3.36.77-4.37.63-1.24,1.55-1.86,2.76-1.86.66,0,1.24.18,1.74.54s.92.97,1.25,1.84.49,2.18.49,3.93c0,1.47-.16,2.66-.48,3.58h0Z"/>
      <path class="cls-1" d="M142.96,45.32l-4.66-5.83,3.88-3.11c.95-.77,1.56-1.22,1.82-1.35s.63-.22,1.09-.25v-.36h-5.17v.36c.57.02.92.07,1.06.14.28.14.42.34.42.59,0,.33-.34.77-1.03,1.33l-4.91,3.97v-4.12c0-.67.04-1.09.12-1.25.1-.21.23-.37.4-.46.23-.13.58-.2,1.03-.2v-.36h-6.59v.36h.44c.37,0,.67.06.88.19.22.13.36.28.43.44.07.17.11.59.11,1.27v8.71c0,.66-.04,1.07-.11,1.23-.09.22-.22.38-.39.47-.23.14-.54.21-.93.21h-.44v.36h6.68v-.36c-.49,0-.84-.06-1.06-.18s-.37-.27-.45-.43c-.08-.17-.12-.6-.12-1.29v-3.61l.49-.41,3.04,3.82c.6.76.9,1.27.9,1.54,0,.14-.06.26-.19.36-.13.1-.41.17-.84.21v.36h6.89v-.36c-.38,0-.75-.1-1.09-.31-.48-.29-1.04-.85-1.7-1.67h0Z"/>
      <path class="cls-1" d="M176.97,35.52c.13-.24.28-.42.45-.54s.38-.19.63-.21v-.36h-3.44v.36c.51,0,.65.1.83.25.18.15.27.36.27.63,0,.18-.03.38-.08.6-.05.21-.19.62-.42,1.2l-2.07,5.55-2.28-6.14c-.29-.77-.44-1.23-.44-1.38,0-.14.04-.26.12-.37s.19-.18.32-.23c.2-.06.52-.1.97-.11v-.36h-6.42v.36c.41,0,.72.06.93.17.21.11.4.29.56.55s1.11,2.69,1.11,2.69l-2.04,5.02-2.51-6.17c-.32-.8-.48-1.32-.48-1.57,0-.19.08-.35.23-.47.15-.13.46-.2.92-.21v-.36h-5.74v.36c.42.04.71.17.89.4.18.23.48.89.93,1.97l4.36,10.81h.36l3.61-8.54,3.28,8.54h.38l4.15-10.93c.37-.93.58-1.44.62-1.51h0Z"/>
      <g>
        <path class="cls-1" d="M274.38,41.06l-1.96-1.48-.62,1.1h-4.54l-2.21-1.03v9.13l2.31-.58v-2.86h4.53v1.25h-2.31v.37c.21.04.67.12,1.09.39.44.26.44.34.44,1.04,0,.33.19.37.42.37.11,0,.71,0,1.34-.23,1.18-.41,1.25-1.08,1.25-1.69v-4.83c.41-.25.58-.35.58-.56,0-.14-.12-.23-.33-.39h0ZM267.36,43.35h4.53v1.28h-4.53v-1.28ZM267.36,42.61v-1.22h4.53v1.22h-4.53Z"/>
        <path class="cls-1" d="M272.79,38.74h-2.27v-1.48h3.79v-.39l-1.55-1.27-.8.94h-1.44v-1.3h4.44v-.41l-1.67-1.34-.91,1.03h-1.85v-.68h0l.67-.27.14-.49-3.12-.41v1.85h-4.05l.49.71h3.56v1.3h-3.02c-.49-.36-1.05-.46-1.79-.49v-2.18l.67-.27.14-.49-3.12-.41v1.15h0l-.03,14.89,2.34-.48v-11.74c.21.24.32.38.39.63.05.12.16.83.19.99.1.48.61.59.81.61h-.95l.49.71h10.88v-.35l-1.6-1.32-.82.96h-.01ZM265.76,37.68s0-.21-.02-.37c0-.02-.01-.04-.02-.06h2.49v1.48h-3.35c.51-.02.89-.56.89-1.06h0Z"/>
        <path class="cls-1" d="M260.09,36.85c-.03.71-.1,1.06-.33,1.37-.64.92-.73,1.04-.73,1.57,0,.47.19,1.3.85,1.3.43,0,.96-.45.96-1.91,0-.99-.23-1.72-.42-2.37l-.33.03h0Z"/>
      </g>
      <polygon class="cls-1" points="308.91 46.64 304.85 46.64 304.85 35.99 309.1 35.99 311.11 35.99 311.11 35.58 309.11 34.08 308.14 35.27 296.6 35.27 296.92 35.99 302.38 35.99 302.38 46.64 295.82 46.64 295.95 46.88 295.95 46.88 296.21 47.36 309.92 47.36 311.79 47.36 311.79 47 309.89 45.47 308.91 46.64"/>
      <path class="cls-1" d="M293.05,41.29c.3-.05.65-.11.65-.37,0-.12-.07-.21-.28-.35l-1.82-1.18c.85-.35,1.2-.49,1.2-1.3v-2.93c.44-.16.69-.25.69-.48,0-.18-.18-.28-.41-.44l-1.89-1.27-.54.91h-2.82l-1.99-1v4.88l-1.59-1.25-.86.97h-.68v-1.92h2.93v-.3l-1.66-1.34-.73.9h-.54v-.95l.67-.27.14-.49-3.12-.41v1.17h0v.95h-2.52l.32.74h2.2v1.92h-3.03l.11.25h0l.21.49h1.3l-.32.21c.28.44.55.9.49,1.37l-.09.67c-.02.09-.02.16-.02.25,0,.47.21.78.54.9h-2.15l.11.24h0l.23.48h2.59v1.83h-2.68l.36.73h2.33v3.83l2.33-.28v-3.55h2.86v-.35l-1.62-1.27-.77.9h-.47v-1.84h3.12v6.46l2.24-.33v-.28l.23.19c1.04-.6,1.37-.86,2.2-1.78.99,1.13,1.3,1.39,1.96,1.83.41-.95.67-1.13,1.32-1.36l.14-.39c-1.2-.67-1.6-.97-2.38-1.6.65-1.2.92-1.85,1.5-3.79h.01ZM279.23,38.22h3.61c-.16.78-.23,1.15-.63,2.78l-.12.62h-1.71c.47-.16.82-.61.82-1.17,0-.62-.35-1.46-1.97-2.24h0ZM285.84,41.78l-1.55-1.2-.85,1.05h-.56c.29-.32.72-.91,1.16-1.43l.65-.74c.33-.07.62-.12.62-.37,0-.19-.19-.35-.41-.42l-1.25-.44h2.19v3.56h0ZM288.08,48.02v-7.19h.05c.51,2.96.95,3.72,1.55,4.71-.76,1.43-1.09,1.87-1.6,2.49h0ZM290.51,43.16l-.21.78c-1.02-1.23-1.45-2.13-1.76-3.1h2.43c-.09.74-.12,1.06-.46,2.33h0ZM291.02,40.12h-2.95v-5.53h2.45v2.98h-1.94v.41c1.27.26,1.41.51,1.41,1.08,0,.46,0,.6.33.6.16,0,.55-.05,1.16-.23l-.47.7h.01Z"/>
      <path class="cls-1" d="M322.81,37.12c.07.53.49.69.85.69.83,0,1.18-.76,1.18-1.41,0-1.6-1.83-1.96-2.75-2.13l-.16.35c.35.41.63.72.74,1.57,0,0,.14.93.14.93Z"/>
      <polygon class="cls-1" points="330.28 42.82 328.61 41.29 328.08 42.94 327.8 42.99 327.8 33.87 328.47 33.6 328.61 33.1 325.49 32.7 325.49 33.87 325.49 43.43 320.4 44.38 320.75 44.94 325.49 44.06 325.49 48.66 327.8 48.29 327.8 43.63 329.25 43.36 329.25 43.36 329.25 43.36 330.35 43.16 330.28 42.82"/>
      <path class="cls-1" d="M322.31,38.35l-.18.33c.48.58.48.71.55,1.89.02.32.09,1.36.9,1.36.33,0,1.23-.32,1.23-1.37,0-.16,0-.51-.48-1.06-.56-.65-1.16-.88-2.03-1.15h.01Z"/>
      <path class="cls-1" d="M321.77,42.37c0-1.2-1.15-1.92-2.63-2.27v-1.29h2.73v-.35l-1.52-1.34-.69.98h-.52v-2.78c.83-.14,1.08-.21,1.9-.42.42.11.48.11.56.11.14,0,.23-.07.23-.19,0-.09-.07-.21-.14-.28l-1.83-1.92c-.74.6-1.08.86-2.96,1.85-1.43.76-2.13.99-2.98,1.25l.12.35c1.29-.07,1.57-.11,2.89-.33v2.37h-3.06l.24.71h2.73l-.23.74c-.9,3.05-2.03,4.97-2.61,5.94l.26.26c1.37-1.09,1.67-1.36,2.66-2.33v5.31l2.2-.42v-7.67c.3.41.55.76.7,1.82.09.6.18,1.16.9,1.16.65,0,1.02-.62,1.02-1.25h.03Z"/>
      <path class="cls-1" d="M339.86,35.25c.26.83.46,1.13,1.04,1.13,1.02,0,1.08-.93,1.08-1.32,0-1.04-.78-1.53-1.3-1.78-.71-.28-1.52-.32-2.1-.35l-.05.37c.65.46.99.83,1.34,1.96h-.01Z"/>
      <path class="cls-1" d="M347.93,37.27l-1.85-1.25-.51.73h-2.24c.72-.6,1.19-1.04,2.1-1.95l-1.04-.42,1.04.42h.73l.31-.41-2.74-1.55-.44,1.09h0c-.55,1.33-.84,1.96-1.27,2.82h-4.77c.35-.09.84-.38.84-1.17,0-1.92-2.43-1.94-3.31-1.96l-.04.37c.48.25.9.49,1.11,1.27l.16.67c.11.4.31.71.67.82h-1.97c-.06-.24-.1-.43-.21-.85h-.46c-.11,1.04-.26,1.32-.97,1.67-.56.28-1,.56-1,1.3,0,.79.67,1.18,1.23,1.18.62,0,1.53-.48,1.53-2.08,0-.16,0-.32-.02-.51h10.7c-.18.63-.23.78-.62,1.99l-1.9-1.32-.49.56h-7.39l.37.74h6.66c-.46.76-.62.97-1.16,1.69l-1.96-.19v1.7h-6.94l.11.26h0l.23.51h6.59v2.89h-2.41v.51c1.53.37,1.59.74,1.64,1.32.05.55.12.6.58.6s1.04-.04,1.46-.21c.88-.32,1.04-.67,1.04-1.82v-3.3h6.7v-.42l-2.01-1.6-.94,1.26h-3.75v-.56c.71-.33.79-.37.79-.53,0-.07-.09-.21-.09-.23.69-.3,1.06-.46,2.41-1.15.42.04.46.04.56.04.33,0,.42-.14.42-.25,0-.12-.16-.25-.25-.32.12-.07.39-.25.46-.3l1.08-.85c.19-.14.44-.32.67-.48.12.02.33.04.37.04.33,0,.51-.19.51-.37,0-.16-.16-.3-.35-.42l.03.02Z"/>
      <g>
        <path class="cls-1" d="M356.7,36.04c-.81.63-1.08.83-1.08,1.29,0,.53.55.99,1.23.99.93,0,1.37-.95,1.37-1.62,0-.09,0-.26-.12-.74h5.99c-.04.18-.46,1.6-.48,1.62l-.56-.49-.97,1.21h-4.5l.11.24h0l.21.48h6.9v-.41l-.71-.62c.12-.09.3-.21.39-.26l1.08-.79s.28-.23.37-.3c.51,0,.56,0,.7-.09.09-.07.19-.16.19-.28,0-.11-.07-.26-.32-.42l-1.94-1.36-.47.77h-2.16v-1.37l.67-.27.14-.49-3.12-.41v2.54h-1.78c-.06-.15-.1-.27-.19-.5h-.46c-.09.63-.19,1.06-.51,1.3l.02-.02Z"/>
        <path class="cls-1" d="M365.69,44.52c0-.23,0-.46.02-.69h-.49l-.18,1.15c-.07.49-.18,1.16-.37,1.32-.09.07-.12.07-.72.07-.35,0-.44-.09-.44-.44v-4.11h3.17v-.42l-1.8-1.53-1.06,1.24h-7.34c-.74-1.43-1.55-1.9-2.21-2.28.83-1.46,1.15-2.04,2.08-3.82.56-.14.81-.19.81-.49,0-.18-.16-.3-.28-.39l-2.01-1.39-.53.9h-1.53l-1.78-.81v16l2.2-.35v-4.35c.6.19.92.41.92,1.09,0,.53,0,.79.32.79.41,0,1.09-.12,1.73-.62.39-.32.78-.85.78-2.2,0-.32-.02-.58-.19-1.36h1.22c-.18,3.24-.28,5.13-3.95,6.64l.14.42c5.66-1.32,5.97-3,6.12-7.07h.9v5.32c0,1.39.65,1.39,1.36,1.39h2.73c1.39,0,1.53-.69,1.71-2.1-1.08-.16-1.3-.62-1.3-1.92h-.03ZM354.71,43.66h-1.48v-9.29h1.08c-.02.21-.11.79-.12.99l-.32,2.59c-.02.21-.12.88-.16,1.13.58.83,1.02,1.69,1.02,4,0,.19-.02.55-.02.58h0Z"/>
      </g>
      <path class="cls-1" d="M95.04,45l-4.78-10.86h-.53l-4.61,10.57c-.45,1.01-.83,1.67-1.13,2-.31.32-.48.52-.96.59v.36h4.4v-.36c-.69-.05-1.12-.13-1.3-.23-.3-.18-.45-.45-.45-.82,0-.28.09-.63.27-1.06l.48-1.11h4.83l.63,1.47c.18.43.28.67.29.73.04.12.06.24.06.36,0,.2-.07.35-.21.45-.21.14-.57.21-1.08.21h-.26v.36h6.41v-.36c-.4-.03-.72-.15-.94-.35-.29-.27-.67-.91-1.12-1.94h0ZM90.79,42.98h-3.85l1.95-4.38,1.89,4.38h.01Z"/>
      <path class="cls-1" d="M157.99,45l-4.78-10.86h-.53l-4.61,10.57c-.45,1.01-.83,1.67-1.13,2-.31.32-.48.52-.96.59v.36h4.4v-.36c-.69-.05-1.12-.13-1.3-.23-.3-.18-.45-.45-.45-.82,0-.28.09-.63.27-1.06l.48-1.11h4.83l.63,1.47c.18.43.28.67.29.73.04.12.06.24.06.36,0,.2-.07.35-.21.45-.21.14-.57.21-1.08.21h-.26v.36h6.41v-.36c-.4-.03-.72-.15-.94-.35-.29-.27-.67-.91-1.12-1.94h0ZM153.74,42.98h-3.85l1.95-4.38,1.89,4.38h.01Z"/>
      <path class="cls-1" d="M188.63,45l-4.78-10.86h-.53l-4.61,10.57c-.45,1.01-.83,1.67-1.13,2-.31.32-.48.52-.96.59v.36h4.4v-.36c-.69-.05-1.12-.13-1.3-.23-.3-.18-.45-.45-.45-.82,0-.28.09-.63.27-1.06l.48-1.11h4.83l.63,1.47c.18.43.28.67.29.73.04.12.06.24.06.36,0,.2-.07.35-.21.45-.21.14-.57.21-1.08.21h-.26v.36h6.41v-.36c-.4-.03-.72-.15-.94-.35-.29-.27-.67-.91-1.12-1.94h0ZM184.38,42.98h-3.85l1.95-4.38,1.89,4.38h.01Z"/>
      <path class="cls-1" d="M196.26,39.23l-.04-2.76c.02-.46,0-1.01.46-1.01h.27v-.37c-.51-.49-1.86-1.31-4.37-1.24v.37c.41.03.73.15.96.36.3.27.49,1.01.56,2.15l-.05,9.24-.22,1.38,2.56,1.12-.13-8.87c.65.09,3.29,2.23,3.78,2.72.5.5,2.53,1.88,2.53-.26,0-2.67-5.13-2.78-6.32-2.83h0Z"/>
      <path class="cls-1" d="M200.17,36.69c.11.29,0,.81.16,1.06.32.51,1.01.61,1.44.28.07-.05.13-.12.18-.19.14-.17.2-.42.2-.66,0-.45-.37-1.41-3-1.94l-.15.36c.81.32,1.04.73,1.16,1.08h0Z"/>
      <path class="cls-1" d="M200.82,33.23l-.11.38c.84.23,1.11.62,1.28.95.14.28.09.81.28,1.04.37.47,1.07.49,1.46.12.07-.06.12-.13.16-.21.12-.18.15-.44.13-.68-.05-.45-.52-1.36-3.2-1.6h0Z"/>
      <path class="cls-1" d="M251.83,36.65l-2.19-1.73-.9.93s-6.45.24-6.81.24c-.95,0-1.71-.05-2.14-.83l-.43.14c.45,1.73,1.81,3.15,2.3,3.15.1,0,.14-.03.52-.31,1.09-.69,6.34-.71,6.79-.71,0,0-.31,7.25-.33,7.41-.26.02-7.1.22-7.36.22-1.05,0-1.4-.52-1.68-.93l-.47.07c.12.59.28,1.45,1.04,2.4.31.4.88.97,1.19.97.19,0,.61-.36.61-.36.33-.31.83-.31,1.26-.38.66-.14,6.57-.28,7.22-.21.12.02.74.14.9.14.22,0,.54-.19.54-.62,0-.48-.55-1.21-.88-1.56l.48-6.93c.35-.16.67-.29.67-.62,0-.19-.17-.36-.33-.48h0Z"/>
      <path class="cls-1" d="M252.49,34.97l-.16.38c.84.34,1.08.76,1.21,1.13.11.31,0,.85.17,1.11.33.53,1.05.63,1.5.29.08-.06.14-.12.19-.19.15-.17.21-.43.21-.69,0-.47-.38-1.47-3.13-2.02h0Z"/>
      <path class="cls-1" d="M254.23,32.87l-.11.39c.87.24,1.16.64,1.33.99.14.29.1.84.29,1.08.39.49,1.11.51,1.53.13.07-.06.12-.14.17-.21.13-.19.16-.45.13-.71-.05-.46-.54-1.42-3.33-1.67h-.01Z"/>
    </g>
    <g>
      <polygon class="cls-2" points="209.39 64.27 212.37 64.27 210.88 61.23 209.39 64.27"/>
      <path class="cls-2" d="M165.08,54.25v17.01h65.6v-17.01h-65.6ZM169.48,58.2h2.31l2.4,5.07,2.4-5.07h2.31l-4.71,9.42-4.71-9.42ZM185.22,67.31h0l-.7-1.4h-4.01l-.7,1.4h-2.31l4.56-9.11h.91l4.56,9.11h-2.31ZM196.58,67.31h-1.61l-4.22-5.46v5.46h-2.07v-9.11h1.61l4.22,5.47v-5.47h2.07v9.11ZM203.61,67.31h-2.06v-7.16h-2.92v-1.95h7.9v1.95h-2.92v7.16ZM213.58,67.31l-.7-1.4h-4.01l-.7,1.4h-2.31l4.56-9.11h.91l4.56,9.11h-2.31ZM224.94,67.31h-1.61l-4.22-5.46v5.46h-2.07v-9.11h1.61l4.23,5.47v-5.47h2.06v9.11Z"/>
      <polygon class="cls-2" points="181.03 64.27 184.01 64.27 182.52 61.23 181.03 64.27"/>
    </g>
    <g>
      <path class="cls-1" d="M75.51,58.78c-.34-.23-.73-.4-1.19-.5-.45-.1-.94-.16-1.46-.16h-3.51v9.56h2.31v-3.6h1.15c.49,0,.97-.05,1.43-.16.46-.11.86-.28,1.21-.51s.63-.54.84-.92c.21-.38.31-.85.31-1.41s-.1-1.01-.29-1.38c-.19-.37-.46-.67-.8-.9v-.02ZM74.15,61.64c-.09.15-.21.27-.37.36s-.34.15-.53.19c-.2.04-.41.05-.62.05h-.97v-2.25h1.01c.21,0,.41,0,.6.04.19.03.37.08.52.16.15.08.27.19.36.34.09.14.14.33.14.55s-.05.41-.14.56Z"/>
      <path class="cls-1" d="M86.43,59.22c-.46-.43-1.01-.76-1.65-1-.64-.23-1.33-.35-2.08-.35s-1.44.12-2.07.35-1.18.57-1.65,1-.83.96-1.09,1.57c-.26.62-.39,1.31-.39,2.07s.13,1.45.39,2.07c.26.63.62,1.16,1.09,1.61.46.45,1.01.79,1.65,1.03.63.24,1.33.36,2.07.36s1.44-.12,2.08-.36,1.19-.59,1.65-1.03c.46-.45.83-.98,1.09-1.61.26-.63.39-1.32.39-2.07s-.13-1.46-.39-2.07c-.26-.62-.62-1.14-1.09-1.57ZM85.24,64.06c-.13.36-.32.68-.57.94-.24.26-.53.47-.86.61-.33.15-.7.22-1.11.22s-.77-.07-1.11-.22c-.33-.15-.62-.35-.86-.61s-.43-.57-.56-.94c-.13-.36-.2-.76-.2-1.19s.07-.8.2-1.16.32-.67.56-.92c.24-.26.53-.46.86-.61s.7-.22,1.11-.22.78.07,1.11.22c.34.15.63.35.86.61.24.26.43.56.56.92.13.36.2.75.2,1.16s-.07.83-.2,1.19h.01Z"/>
      <polygon class="cls-1" points="97.97 64.49 97.93 64.49 96.22 58.13 93.82 58.13 92.12 64.49 92.08 64.49 90.56 58.13 88.08 58.13 90.79 67.69 93.09 67.69 94.98 61.22 95.02 61.22 96.91 67.69 99.19 67.69 101.92 58.13 99.51 58.13 97.97 64.49"/>
      <polygon class="cls-1" points="105.44 63.73 109.41 63.73 109.41 61.88 105.44 61.88 105.44 60.07 109.64 60.07 109.64 58.13 103.22 58.13 103.22 67.69 109.88 67.69 109.88 65.72 105.44 65.72 105.44 63.73"/>
      <path class="cls-1" d="M118.46,62.65c.35-.44.53-.99.53-1.63,0-.55-.1-1.01-.31-1.38-.21-.37-.48-.67-.83-.89s-.74-.38-1.17-.48c-.44-.09-.88-.14-1.34-.14h-3.64v9.56h2.25v-3.79h.79l2.08,3.79h2.7l-2.5-4.09c.62-.19,1.11-.5,1.46-.94h-.02ZM116.55,61.65c-.1.15-.24.27-.4.35-.16.08-.34.14-.54.17-.2.03-.39.05-.58.05h-1.1v-2.23h1.23c.17,0,.35,0,.54.04.19.03.35.08.5.16.15.08.27.18.37.32.09.14.14.32.14.55s-.05.44-.16.59Z"/>
      <polygon class="cls-1" points="122.84 63.73 126.81 63.73 126.81 61.88 122.84 61.88 122.84 60.07 127.04 60.07 127.04 58.13 120.62 58.13 120.62 67.69 127.29 67.69 127.29 65.72 122.84 65.72 122.84 63.73"/>
      <path class="cls-1" d="M136.29,59.15c-.51-.36-1.1-.63-1.75-.78-.66-.16-1.32-.24-2-.24h-3.46v9.56h3.56c.66,0,1.3-.09,1.94-.28.64-.18,1.21-.47,1.72-.86s.92-.89,1.23-1.5.47-1.33.47-2.17c0-.9-.16-1.66-.47-2.27-.32-.61-.73-1.1-1.24-1.46h0ZM135.34,64.22c-.18.36-.41.65-.7.86-.29.22-.63.37-1.01.47-.38.09-.78.14-1.19.14h-1.09v-5.59h1.15c.4,0,.78.05,1.15.14s.71.24,1,.45.53.49.7.85c.18.36.26.8.26,1.34s-.09.98-.26,1.34h0Z"/>
      <path class="cls-1" d="M149.14,63.39c-.18-.19-.38-.34-.62-.47-.24-.12-.49-.2-.76-.25v-.03c.47-.15.85-.4,1.13-.75.29-.35.43-.79.43-1.32,0-.49-.1-.89-.3-1.2s-.45-.56-.77-.75c-.32-.18-.67-.31-1.05-.39-.39-.08-.77-.11-1.13-.11h-3.81v9.56h3.81c.46,0,.91-.05,1.34-.14.44-.09.83-.25,1.17-.47s.62-.5.82-.86c.21-.36.31-.79.31-1.32,0-.31-.05-.6-.16-.85-.1-.25-.24-.47-.42-.66h.01ZM144.49,59.96h1.13c.49,0,.85.07,1.1.22s.37.38.37.71-.12.6-.36.78-.57.26-1.01.26h-1.24v-1.97h0ZM147.26,65.26c-.1.15-.23.26-.38.34s-.33.14-.53.17c-.19.03-.38.05-.56.05h-1.3v-2.19h1.28c.49,0,.89.08,1.19.23.3.15.45.43.45.82,0,.23-.05.43-.15.57h0Z"/>
      <polygon class="cls-1" points="156.71 58.13 154.67 61.67 152.63 58.13 149.84 58.13 153.43 63.64 153.43 67.69 155.74 67.69 155.74 63.64 159.41 58.13 156.71 58.13"/>
    </g>
  </g>
  <g>
    <g>
      <path class="cls-1" d="M270.75,67.62l-.96,1.29c-1.81-.61-3.61-1.62-4.93-2.97v3.15h-1.56v-3.18c-1.29,1.35-3.06,2.4-4.81,3.06l-.93-1.23c1.87-.56,3.83-1.56,5.06-2.94h-3.88v-5.23h4.56v-1.04h-5.61v-1.24h5.61v-1.14h1.56v1.14h5.75v1.24h-5.75v1.04h4.7v5.23h-3.95c1.24,1.36,3.2,2.29,5.14,2.8v.02ZM260.03,61.73h3.27v-1.14h-3.27v1.14ZM260.03,63.68h3.27v-1.06h-3.27v1.06ZM268.21,61.73v-1.14h-3.35v1.14h3.35ZM268.21,63.68v-1.06h-3.35v1.06h3.35Z"/>
      <path class="cls-1" d="M276.78,65.62c-.79,1.3-1.79,2.18-2.93,3.1l-1.36-.81c1.17-.82,2.26-1.79,2.89-2.79l1.41.5h-.01ZM278.27,57.67v-1.52h1.59v1.52h5.58v1.25h-12.93v-1.25h5.76ZM279.86,67.71c0,.78-.24,1.21-.92,1.32-.39.07-1.12.07-1.77.03l-.28-1.41c.47.03.94.03,1.13.01.21-.01.27-.1.27-.28v-3.08h-4.23v-4.29h9.83v4.29h-4.03v3.4h0ZM275.37,63.09h7.16v-1.84h-7.16v1.84ZM282.38,65.01c1.32,1.13,2.22,1.89,3.07,2.88l-1.46.72c-.77-.99-1.65-1.8-2.9-2.94l1.3-.67h-.01Z"/>
    </g>
    <g>
      <path class="cls-1" d="M311.39,67.7l-1.13,1.36c-2.55-1.03-4.32-2.88-5.39-5.79-.77,2.44-2.28,4.46-5.26,5.79l-1.18-1.24c3.48-1.38,4.82-3.65,5.33-6.45h-5.24v-1.46h5.45c.11-1.17.13-2.41.14-3.71h1.6c-.03,1.3-.07,2.52-.18,3.71h5.74v1.46h-5.38c.82,3.43,2.66,5.39,5.5,6.32h0Z"/>
      <path class="cls-1" d="M317.8,64.19c0-.88.08-1.88-.86-3.09.24-1.5.62-2.59.93-4.05l-.73-.41h-3.93v12.45h1.42v-11.07h1.43c-.1,1.1-.53,2.06-.71,3.36.96,1.1,1.01,1.95,1.01,2.66,0,.64-.11,1.06-.53,1.1-.18.03-.38.01-.62-.01l.22,1.35c.45.04.91.03,1.24-.06.84-.2,1.11-1.18,1.11-2.23h.02Z"/>
      <path class="cls-1" d="M323.55,65.85c.97-1.56,1.65-3.21,1.98-5.48l-.82-.46h-4.85v-1.88h6.07v-1.38h-7.54v5.24c0,2.34-.35,4.46-1.75,6.27l1.29.85c1.41-1.94,1.87-4.25,1.92-6.66v-1.04h3.98c-.25,1.25-.7,2.35-1.23,3.32-.48-.75-1.07-1.59-1.36-2.53l-1.33.45c.41,1.27,1.16,2.4,1.83,3.36-.7.85-1.53,1.52-2.54,2.03l1.03,1.14c.92-.54,1.73-1.21,2.41-2.02.77.84,1.63,1.52,2.59,2.03l1.03-1.24c-1.02-.47-1.94-1.14-2.73-2.01h.02Z"/>
    </g>
    <g>
      <path class="cls-1" d="M344.66,68.59v.5h-1.52v-3.82c-.91.56-1.88,1.03-2.9,1.45l-.99-1.2c2.01-.72,3.77-1.71,5.25-2.9-.52-.52-1.18-1.02-1.99-1.5l.99-.91c.84.47,1.53.95,2.09,1.42.88-.86,1.59-1.82,2.13-2.84h-3.4c-1.02,1.25-2.27,2.33-3.65,3.18l-1.25-.99c2.1-1.17,3.84-2.79,4.9-4.86l1.42.49c-.14.26-.29.54-.45.79h3.45l.96.62c-.81,2.01-2,3.6-3.66,5.1h5.4v5.95h-1.55v-.49h-5.25.02ZM349.91,67.18v-2.65h-5.25v2.65h5.25Z"/>
      <path class="cls-1" d="M355.83,68.62v.47h-1.5v-6.25h3.96v-2.49h-5.61v-1.38h5.61v-2.81h1.57v2.81h5.74v1.38h-5.74v2.49h4.07v6.25h-1.56v-.47h-6.54ZM362.36,67.21v-2.95h-6.53v2.95h6.53Z"/>
      <g>
        <path class="cls-1" d="M374.98,67.52v-.93h3.21v-1.16h-3.21v-1.03l2.24-.07.55.6,1.07-.73-1.72-1.73-1.2.52.39.37-3.67.07s.55-.87.76-1.24h5.39v-1.2h-8.56v1.2h1.62c-.2.38-.71,1.26-.71,1.26h-.92l.04,1.17,3.16-.13v.94h-3.09v1.16h3.09v.93h-4.25v1.23h10.37v-1.23h-4.56Z"/>
        <path class="cls-1" d="M369.51,60.15h9.28v-3.55h-10.75v4.67c0,2.49-.27,4.83-1.32,6.9l1.34.79c1-2.05,1.39-4.39,1.46-6.77v-2.03h0ZM369.51,57.81h7.73v1.11h-7.73v-1.11Z"/>
      </g>
    </g>
    <rect class="cls-1" x="332.32" y="54.25" width=".89" height="17.01"/>
    <rect class="cls-1" x="385.57" y="54.25" width=".89" height="17.01"/>
    <rect class="cls-1" x="291.49" y="54.25" width=".89" height="17.01"/>
    <g>
      <path class="cls-1" d="M399.02,68.68v.4h-1.41v-4.32l-.75.85c-.21-.43-.53-1-.88-1.57v5.04h-1.46v-4.4c-.42.46-.86.88-1.34,1.25l-.77-1.2c1.5-1.17,2.8-2.97,3.55-4.92h-3.27v-1.34h1.82v-2.31h1.46v2.31h.91l.84.33c-.36,1.27-.89,2.49-1.56,3.62.52.6,1.06,1.27,1.45,1.77v-1.45h7.65v6.32h-1.45v-.4h-4.79v.02ZM405.55,56.52v1.27h-8.2v-1.27h8.2ZM404.63,58.54v3.47h-6.41v-3.47h6.41ZM400.6,65.1v-1.07h-1.59v1.07h1.59ZM400.6,67.43v-1.16h-1.59v1.16h1.59ZM399.63,60.86h3.54v-1.17h-3.54v1.17ZM403.81,65.11v-1.07h-1.8v1.07h1.8ZM403.81,67.44v-1.16h-1.8v1.16h1.8Z"/>
      <path class="cls-1" d="M418.5,56.74h.79v10.86c0,.85-.24,1.29-1,1.43-.35.06-1.1.07-1.66.04l-.26-1.32c.39.03.91.03,1.09.01.25-.01.32-.13.32-.36v-9.29h-8.45v10.97h-1.5v-12.35h10.68,0ZM416.79,62.67v4.16h-5.17v.81h-1.34v-4.97h1.34v2.9h1.21v-3.54h-3.13v-1.2h1.67c-.1-.65-.36-1.53-.72-2.27l1.17-.36c.39.78.67,1.64.77,2.28l-1.14.35h2.8c.43-.92.85-1.95,1.07-2.67l1.34.42c-.28.64-.68,1.48-1.13,2.26h1.88v1.2h-3.23v3.54h1.27v-2.9h1.35,0Z"/>
    </g>
  </g>
</svg>